<svg preserveAspectRatio="xMidYMid meet" data-bbox="-0.003 0.003 566.62 751.566" viewBox="-0.003 0.003 566.62 751.566" xmlns="http://www.w3.org/2000/svg" data-type="shape" role="presentation" aria-hidden="true" aria-label="">
    <g>
        <path d="M375.91 592.6c-.62 37.97-7.93 68.44-18.36 98.28-5.05 14.46-10.96 28.57-17.39 42.47-5.38 11.64-14.05 18.48-27.22 18.2-13.18-.29-21.64-7.52-26.44-19.36-8.51-20.98-14.6-42.81-22.27-64.09-10.81-29.98-23.28-59.13-42.22-85.07-5.8-7.95-12.19-15.39-19.21-22.28-9.26-9.1-19.73-9.13-29.03.02-19.85 19.55-33.94 42.95-45.56 68.04-13.04 28.16-21.96 57.81-31.99 87.06-1.94 5.66-3.97 11.31-6.3 16.82-4.81 11.35-13.02 18.46-25.77 18.86-12.89.41-21.9-5.84-27.24-17.35-17.19-37.01-30.53-75.17-34.95-116.05-2.72-25.17-.2-49.79 6.89-74.05 5.08-17.39 10.29-34.72 13.76-52.57 4.4-22.66 1.76-44.24-6.56-65.56-7.4-18.96-12.86-38.55-14.99-58.85-4.31-41.04 4.11-78.78 32.27-110.06 23.61-26.22 52.86-36.57 87.9-26.77 14.74 4.12 29.69 7.51 44.3 12 15.16 4.66 29.94 4.73 45.12.14 15.11-4.58 30.51-8.22 45.74-12.41 30.85-8.49 57.71-.75 80.66 20.65 23.99 22.37 35.52 50.97 38.88 83.13 3.35 32.12-4.16 62.59-15.45 92.19-8.64 22.62-10.87 45.34-5.83 69.03 2.98 14.02 6.84 27.77 10.9 41.48 6.02 20.34 10.85 40.86 10.36 56.13Zm-17.76 4.8c.25-9.87-.83-19.6-2.73-29.28-3.65-18.66-10.02-36.57-14.8-54.91-8.35-32.06-9.25-63.58 3.87-94.91 7.6-18.15 12.38-37.3 14-57 2.82-34.23-4.61-65.73-27.81-91.93-19.09-21.56-42.67-30.39-71.41-21.99-14.68 4.29-29.64 7.65-44.28 12.05-17.59 5.29-34.92 5.53-52.56.24-14.97-4.49-30.27-7.86-45.25-12.3-26.58-7.87-49.26-.81-67.9 18.52-27.55 28.57-35.08 63.66-30.42 102.03 2.46 20.28 8.93 39.55 15.97 58.61 7.63 20.63 9.3 41.64 5.79 63.36-2.64 16.33-6.66 32.27-11.64 47.96-8.67 27.3-13 54.9-9.01 83.61 5.09 36.64 17.12 71.02 32.42 104.45 2.16 4.73 5.27 8.26 10.82 8.15 5.53-.11 8.75-3.61 10.57-8.49 2.96-7.95 5.96-15.88 8.66-23.92 9.79-29.17 19.16-58.49 32.62-86.28 11.91-24.58 26.4-47.34 45.86-66.71 16.57-16.49 38.33-16.46 54.89.13 7.77 7.79 14.88 16.14 21.33 25.06 19.69 27.25 32.7 57.79 43.99 89.19 7.42 20.66 13.39 41.83 21.56 62.24 1.99 4.98 5.07 8.8 10.87 8.81 5.54 0 8.55-3.6 10.72-8.32 6.41-13.91 12.3-28.03 17.28-42.51 9.56-27.83 16.41-56.2 16.6-85.84Z"></path>
        <path d="M522.59 203.25c-9.82 0-19.64.03-29.46 0-20.7-.07-37.15-12.25-43.07-32.14-.91-3.05-2.11-4.18-5.41-4.2-69.61-.43-136.41-14.37-200.35-41.98-4.93-2.13-4.96-2.07-4.98 3.48 0 2.66.05 5.33 0 7.99-.11 6.88-3.18 10.28-9.95 10.31-3.43.02-4.45.96-4.48 4.49-.15 17.02-8.83 29.39-24.81 35.51-2.37.91-2.98 2.09-2.96 4.35.08 7.66.09 15.31.01 22.97-.06 6.23-3.38 10.04-8.62 10.13-5.39.1-8.93-3.89-8.99-10.31-.07-7.49-.02-14.98-.02-22.47 0-2.03-.04-3.6-2.65-4.56-16.57-6.08-24.74-18.35-25.14-35.77-.08-3.7-1.39-4.32-4.65-4.32-6.38-.01-9.79-3.56-9.8-10-.05-29.13-.3-58.26.08-87.38.34-25.62 21.02-47.22 46.25-49.18 26.6-2.06 49.85 15.13 54.57 40.86.92 5.03 2.97 7.43 7.64 9.45 48.11 20.9 98.02 34.94 150.28 40.22 16.23 1.64 32.51 2.57 48.84 2.58 3.17 0 4.22-1.27 5.07-4 6.21-20.04 21.49-32 42.41-32.39 21.46-.4 42.94-.15 64.41-.07 5.77.02 9.67 3.64 9.78 8.57.1 5.05-4 8.84-9.96 8.86-20.14.06-40.28.06-60.42.01-19.31-.04-30.18 10.52-30.28 29.75-.1 18.14-.09 36.29.04 54.43.12 16.04 11.5 27.27 27.52 27.32 20.97.06 41.94.06 62.92 0 4.22 0 7.46 1.44 9.35 5.32 1.68 3.43.75 6.52-1.57 9.25-2.11 2.49-5.04 2.94-8.15 2.93-11.15-.05-22.3-.02-33.46-.01Zm-96.88-53.9c5.65 0 11.32-.25 16.96.08 4.19.25 5.9-.72 5.68-5.38-.4-8.47-.02-16.97-.12-25.45-.1-8.79 1.39-7.65-7.54-7.77-41.77-.57-82.89-5.86-123.27-16.7-25.09-6.73-49.63-15.05-73.42-25.49-3.76-1.65-4.88-1.18-4.74 3.08.26 7.81.58 15.68-.09 23.44-.56 6.56 1.91 9.4 7.84 11.96 57.08 24.71 116.5 39.12 178.7 42.21Zm-270.8-62.47h-.04c0 12.64.11 25.28-.07 37.92-.05 3.51 1.03 4.48 4.51 4.45 19.29-.16 38.58-.19 57.87 0 3.77.04 4.8-1.02 4.77-4.74-.17-22.45-.07-44.9-.12-67.35-.01-4.81.18-9.65-1.07-14.38-4.25-16.06-19.56-26.87-35.58-25.1-17.11 1.88-29.74 15.14-30.21 32.28-.34 12.3-.07 24.61-.07 36.92Zm33.63 59.93c-5.32 0-10.64.09-15.95-.04-2.61-.06-3.33.94-3.41 3.51-.37 11.33 8.06 20.8 18.87 20.91 10.95.11 19.39-8.93 19.34-20.41-.01-2.95-.74-4.17-3.9-4.02-4.97.24-9.97.06-14.95.05Z"></path>
        <path d="M49.18 210.81c-5.98 0-11.96.07-17.94-.02-5.59-.09-9.61-3.69-9.77-8.55-.16-5.09 3.9-9 9.76-9.04 11.96-.09 23.92-.09 35.87 0 5.95.04 10.04 3.77 10.03 8.81 0 5.04-4.13 8.74-10.03 8.81-5.98.07-11.96.02-17.94.02v-.02Z"></path>
        <path d="M116.33 153.7c-.11 6-3.42 9.84-7.75 10.28-4.38.45-8.49-2.32-9.44-7.08-2.1-10.58-3.86-21.22-5.75-31.84-.38-2.12-.9-4.24-1.03-6.38-.3-4.7 2.76-8.76 6.99-9.55 4.36-.81 9.03 1.62 9.97 6.22 2.68 13.16 4.86 26.42 7.01 38.35Z"></path>
        <path d="M88.19 171.48c-.19 3.4-1.45 6-4.38 7.52-3.2 1.67-6.57 1.76-9.43-.45-4.6-3.55-9.08-7.29-13.31-11.27-3.2-3.01-3.31-8.08-.82-11.43 2.39-3.21 7.73-4.67 11.2-2.18 5.24 3.77 10.06 8.13 14.89 12.44 1.49 1.33 1.76 3.52 1.86 5.36Z"></path>
        <path d="M43.81 351.91c-.16-22.76 4.84-43.48 18.51-61.44 8.11-10.64 18.23-18.45 32.16-19.88 6.14-.63 10.87 2.6 11.35 7.78.47 5.06-3.13 8.83-9.21 9.62-10.13 1.31-16.76 7.78-22.1 15.66-10.8 15.95-14.16 33.84-12.85 52.8.13 1.83.45 3.64.54 5.46.27 5.27-3.07 9.53-7.72 9.94-4.94.44-8.7-2.64-9.74-8.02-.13-.65-.23-1.31-.27-1.98-.25-3.49-.48-6.97-.68-9.94Z"></path>
    </g>
</svg>