<svg preserveAspectRatio="xMidYMid meet" data-bbox="0.001 0.02 335.383 371.508" viewBox="0.001 0.02 335.383 371.508" xmlns="http://www.w3.org/2000/svg" data-type="shape" role="presentation" aria-hidden="true" aria-label="">
    <g>
        <path d="M260.33 180.64c6.33-3.16 10.46-7.59 12.93-13.56 1-2.41 1.72-4.94 2.68-7.36.97-2.44 2.88-3.75 5.5-3.75 2.63 0 4.48 1.35 5.52 3.75.44 1.03.83 2.09 1.13 3.16 2.18 7.68 6.6 13.51 13.63 17.49 4.97 2.81 5.01 8.14.07 10.92-7.03 3.96-11.5 9.76-13.68 17.45-.27.96-.59 1.9-.96 2.83-1.01 2.55-2.82 4.14-5.63 4.18-2.99.04-4.87-1.65-5.88-4.35-.61-1.63-1.1-3.31-1.66-4.96-2.57-7.48-7.62-12.67-15.04-16.16-.94 6.74-1.41 13.29-1.44 19.87-.02 3.36-1.04 7.23.29 9.94 1.29 2.65 5.72 2.27 8.62 3.65 3.39 1.61 6.77 3.17 9.62 5.67 7.3 6.39 7.25 14.57-.24 20.78-5.9 4.89-13.03 7.22-20.33 8.98-2.39.58-3.7 1.4-4.36 4.11-7.05 28.74-19.96 54.65-38.33 77.85-6.35 8.02-12.74 16-19.15 23.97-4.68 5.83-10.73 7.78-16.83 5.5-5.94-2.21-9.19-7.57-9.12-14.84.08-9.2 2.46-17.98 4.71-26.8 8.77-34.35 13.1-69.26 13.25-104.71.03-8.25-1.64-16.09-5.28-23.49-2.67-5.43-6.94-8.23-12.96-8.7.25 1.38 1.53 1.87 2.34 2.74 5.25 5.62 5.28 12.54-.16 17.99-5.87 5.88-13.51 8.42-21.28 10.24-3.67.86-4.71 2.36-4.65 5.94.15 9.12.84 18.18 1.73 27.25.23 2.39.98 3.68 3.72 4.03 4.68.6 9.28 1.84 13.69 3.64 2.55 1.04 4.98 2.31 7.06 4.15 5.09 4.49 5.12 10.76.02 15.24-4.16 3.65-9.28 5.33-14.51 6.51-2.61.59-3.25 1.54-2.5 4 .9 2.98 1.6 6.02 2.27 9.06 2.69 12.22-7.11 22.53-19.46 20.51-5.34-.87-9.92-3.21-13.71-7.08-5.76-5.89-11.41-11.93-15.98-18.78-2.4-3.6-5.22-5.08-9.39-5.4-5.96-.46-11.83-1.74-17.5-3.72-3.07-1.07-6.03-2.39-8.61-4.42-6.2-4.87-6.18-11.94.09-16.68 3.43-2.6 7.4-4.12 11.53-5.12 2.18-.53 2.72-1.23 1.76-3.51-4.21-10-7.52-20.32-9.83-30.93-.52-2.39-1.58-3.48-4.08-3.95-5.14-.96-10.12-2.6-14.88-4.84-2.72-1.28-5.32-2.74-7.61-4.7-7.37-6.31-7.44-14.51-.07-20.8 4.54-3.88 9.92-6.22 15.66-7.63 2.81-.69 3.47-1.85 2.65-4.64-3.37-11.57-8.18-22.46-14.97-32.44-3.09-4.54-6.22-9.05-8.32-14.15-.74-1.8-2.13-2.2-3.75-2.58-8.99-2.11-17.82-4.7-26.06-8.99-2.55-1.33-4.97-2.87-7.14-4.76-7.18-6.26-7.27-14.24-.24-20.62 3.27-2.97 7.12-5.02 11.14-6.76 5.27-2.28 10.68-4.17 16.28-5.43 2.44-.55 3.46-1.45 3.37-4.19-.53-15.04 3.34-28.85 12.11-41.18 1-1.41 1.17-2.36-.56-3.19-.9-.43-1.75-.96-2.57-1.52-4.13-2.79-4.24-7.96.14-10.36 7.74-4.24 12.27-10.72 14.55-19.02C60.58 2.66 62.29.2 66.06.3c3.56.09 5.11 2.54 6.05 5.66.94 3.09 2 6.15 3.74 8.94.9 1.44 1.72 2.07 3.61 1.34 6.2-2.38 12.68-3.65 19.33-3.96 1.34-.06 2.32-.77 3.42-1.35 28.04-14.82 55.43-15.49 81.84 3.88 1.14.83 1.9 1.19 3.23.27 17.34-12.12 35.76-10.67 54.23-3.54 17.34 6.69 30.05 18.85 38.32 35.49 1.18 2.37 2.65 3.11 5.1 3.46 12.23 1.77 24.3 4.27 35.54 9.72 3.71 1.8 7.22 3.96 10.1 6.98 6.43 6.74 6.44 14.98-.1 21.61-6.06 6.15-13.87 9.13-21.85 11.72-7.36 2.39-14.96 3.83-22.59 5.06-1.25.2-2.38.28-2.87 1.82-5.27 16.36-12.75 31.92-17.49 48.47-1.96 6.83-3.56 13.74-4.87 20.72-.22 1.17-.26 2.38-.44 4.07Zm-203.82-44.9c1.46 2.23 2.44 3.8 3.49 5.32 8.74 12.66 14.74 26.52 18.33 41.46 2.28 9.48 2.7 19.24 4.4 28.81.35 1.98.88 2.9 3.14 3.17 15.2 1.82 30.36 1.67 45.53-.19 1.91-.23 2.38-1.25 2.83-2.82 2.12-7.37 5.38-14.21 10.01-20.34 12.76-16.86 37.68-14.46 46.94 4.53 4.45 9.12 6.46 18.79 6.42 28.93-.16 38.61-5.28 76.54-15.27 113.83-1.55 5.8-2.59 11.67-2.69 17.7-.02 1.32.07 2.53 1.52 3.08 1.34.5 2.12-.39 2.82-1.28 14.32-18.06 29.68-35.36 40.08-56.23 5.8-11.63 10.58-23.62 14.19-36.11.85-2.95.27-3.42-2.61-2.97-3.56.56-7.2.68-10.81.88-9.55.53-9.45.5-9.34-9.02.03-2.46.92-2.85 3.05-2.84 6.74.06 13.44-.67 20.14-1.35 2.42-.25 3.44-1.08 3.82-3.51 1.8-11.35 3-22.73 3.01-34.24.03-26.19 4.67-51.56 13.98-76.06 3.36-8.85 6.68-17.71 10.16-26.51.89-2.26.41-2.9-1.92-2.65-2.35.26-4.72.43-7.09.52-9.51.37-9.43.35-9.21-9.18.05-2.17.74-2.68 2.78-2.72 5.61-.11 11.21-.55 16.82-.66 2.18-.04 3.07-.85 3.39-2.95 3.49-22.46-1.73-42.25-18.68-57.92-13.5-12.48-29.64-18.25-48.12-15.44-12.36 1.88-23.65 12.56-25.91 23.57.23.08.46.22.69.23.5.02 1 0 1.49-.05 23.81-2.42 45.77 3.02 66.1 15.48 4.54 2.78 4.57 2.74 1.71 7.51q-3.29 5.49-8.76 2.23c-26.18-15.67-53.74-17.52-82.4-8.18-1.76.57-3.51.74-2.15 3.66 2.9 6.23 2.69 6.32-3.69 9.07-4.54 1.96-4.61 1.98-6.45-2.53-7.86-19.32-21.17-33.44-39.85-42.76-6.62-3.31-13-3.39-19.92-1.12 1.83 3.4 2.2 6.98-1.42 8.94-8.27 4.48-12.95 11.38-15.3 20.23-.78 2.93-2.75 4.79-5.91 4.79-3.17 0-4.94-1.92-5.95-4.78-.8-2.26-1.17-4.71-2.85-7.05-3.23 4.78-5.6 9.56-6.91 14.76-4.04 15.99-1.96 32.24-1.82 48.4.02 2.7.89 5.4 1.34 8.1.37 2.2 1.41 3.2 3.85 3.65 34.72 6.32 69.79 8.3 104.99 8.78 9.5.13 9.43.05 9.21 9.39-.05 2.15-.68 2.71-2.77 2.69-17.47-.13-34.91-.81-52.34-1.98-18.53-1.24-36.99-3.19-56.09-6.24Zm46.27 92.08c-4.6-.31-9.21-.52-13.8-.97-2.23-.22-3.13-.19-2.38 2.6 4.69 17.56 11.44 34.21 21.07 49.67 1.06 1.69 2.25 2.38 4.19 2.43 7.61.18 15.2.08 22.79-.51 2.67-.21 2.71-1.22 2.28-3.25-3.45-16.14-5.26-32.46-5.15-48.97.02-2.42-.9-2.53-2.88-2.28-8.67 1.09-17.39 1.4-26.13 1.28Zm13.05-210.15c14.39 7.55 25.83 17.69 34.49 30.86 1 1.51 1.95 1.47 3.4.99 3.89-1.29 7.78-2.61 11.75-3.64 2.05-.53 3.14-1.42 3.55-3.56 1.07-5.44 3.28-10.48 6.48-14.97 1.54-2.16 1.29-3.19-.79-4.67-11.68-8.31-24.72-11.48-38.85-10.25-6.79.59-13.44 1.94-20.03 5.24Zm170.85 72.47c-.18 1.67-.58 3.4 2.21 2.84 10.13-2.04 20.26-4.15 29.33-9.4 6.66-3.85 6.71-6.96.15-10.89-9.34-5.59-19.81-7.81-30.38-9.67-2.06-.36-2.36.55-2 2.25 1.7 8.25 1.89 16.55.69 24.87ZM37.14 117.86c-1.36-6.38-1.27-12.85-1.22-19.31 0-1.14-.36-1.55-1.56-1.2-7.04 2.05-14.06 4.12-20.2 8.36-2.64 1.82-2.39 3.44.08 5.08 6.53 4.34 14.01 6.25 21.41 8.34 1.01.28 1.76.06 1.48-1.27Zm81.47 176.02c2.22 3.73 10.66 13.27 13.57 15.46 1.64 1.23 3.49 1.92 5.47 2.19 4.14.55 6.68-2.23 5.75-6.34-.74-3.27-1.78-6.47-2.41-9.76-.41-2.13-1.25-2.84-3.48-2.66-6.19.51-12.4.75-18.91 1.12Zm-48.37-84.87c-.42-3.2-.97-6.87-1.34-10.56-.16-1.61-.86-1.81-2.19-1.41-3.8 1.15-7.47 2.58-10.81 4.8-2.12 1.41-2.29 2.68-.02 4.11 3.92 2.47 8.27 3.87 12.66 5.21 1.57.48 2.06-.19 1.7-2.15Zm184.46 37.85c4.89-1.02 9.17-2.74 13.1-5.35 1.92-1.28 1.7-2.4-.11-3.61-2.91-1.95-6.09-3.25-9.37-4.4-1.5-.53-2.03-.1-2.19 1.35-.44 3.9-.92 7.8-1.42 12.01ZM65.56 22.38c-.29.35-.66.81-1.05 1.27-1.78 2.07-4.77 4.01-5.03 6.25-.29 2.57 3.56 4.07 4.9 6.59 1.13 2.13 1.95 1.48 3.08-.1 1.57-2.2 4.88-4.33 4.73-6.27-.18-2.32-3.23-4.41-5.07-6.58-.38-.44-.55-1.16-1.57-1.15Zm215.89 155.29c-.78.99-1.36 1.75-1.98 2.49-1.57 1.9-4.39 3.78-4.39 5.68 0 1.89 2.99 3.66 4.33 5.71 1.52 2.34 2.5 2.42 4.06.02 1.33-2.05 4.34-3.81 4.35-5.7 0-1.89-2.81-3.78-4.38-5.68-.61-.74-1.19-1.51-1.99-2.51ZM147.4 210.75c3.33-.53 6.04-1.67 8.69-2.94 1.99-.96 5.03-1.72 5.07-3.87.04-2.46-3.2-3.03-5.18-4.18-.97-.56-2.15-1.54-3.19.09-2.12 3.31-4.23 6.61-5.39 10.9Zm-67.27 65.13c4.56 1.95 8.78 3.02 13.3 3.53-2.69-7.77-4.79-8.36-13.3-3.53Zm79.17-.22c-2.69-1.73-5.51-2.18-8.22-2.86-.85-.22-2.45-.98-2.65.06-.28 1.48.35 3.15.65 4.73.23 1.18 1.15 1.23 2.03.97 2.67-.79 5.53-1.08 8.18-2.89Z"></path>
    </g>
</svg>