<svg preserveAspectRatio="xMidYMid meet" data-bbox="-0.004 0 396.822 315.649" viewBox="-0.004 0 396.822 315.649" xmlns="http://www.w3.org/2000/svg" data-type="shape" role="presentation" aria-hidden="true" aria-label="">
    <g>
        <path d="M244.33 302.66c.49 1.54.98 3.07 1.47 4.61.93 2.94 3.03 6.56-1.34 8.04-4 1.36-4.78-2.58-5.77-5.31-4.12-11.39-8.51-22.69-12.1-34.25-4.87-15.65-14.82-28.39-23.06-42.29-1.1 3.77-2.27 7.19-.53 11.17 8.9 20.38 17.58 40.85 26.33 61.29.39.91.78 1.83 1.17 2.75 1.04 2.45 1.72 5.09-1.25 6.47-3.46 1.61-4.66-1.19-5.75-3.71-8.71-20.29-17.52-40.53-26.03-60.9-1.71-4.1-3.1-5.26-7.84-3.7-30.83 10.14-61.41 8.32-91.73-2.69-5.82-2.11-8.25-5.4-7.89-11.83.87-15.59 1.14-31.21 3.58-46.67.2-1.29.55-2.63-.36-4.15-15.81 5.75-32.21 5.49-48.58 3.4-11.92-1.53-23.18-5.57-33.67-11.6-2.86-1.65-4.17-3.88-4.17-7.28 0-14.63-.35-29.27 1.41-43.84.12-.98.55-2.16.18-2.93-4.9-10.28-4.05-21.45-4.94-32.3C2 69.07.74 51.16.03 33.23-.76 13.21 12.49 0 32.6 0h331.83c20.02 0 33.3 13.22 32.34 33.39-1.18 24.89-1.87 49.94-5.49 74.52-1.99 13.47.56 26.33-.22 39.44-.31 5.14-.57 10.35-.06 15.45.59 5.83-2.19 8.83-6.92 11.25-17.32 8.84-35.71 12.07-55.01 11.11-7.5-.37-14.92-1.06-21.98-3.76-1.93-.74-3.4-.33-5.16.5-19 9.01-39.17 11.02-59.79 9.33-14.72-1.21-29.14-4.21-42.97-10.27-.76 4.28.23 7.01 4.25 7.99 8.24 2.02 12.73 7.57 16.49 15.03 17.07 33.79 34.68 67.31 52.09 100.92.84 1.62 1.61 3.28 2.43 4.91 1.2 2.37.59 4.3-1.71 5.43-2.23 1.09-3.92-.14-4.96-2.04-2.53-4.67-4.92-9.42-7.37-14.14-16.65-32.14-33.28-64.29-49.98-96.41-.76-1.46-1.01-3.7-3.4-3.54 7.08 19.71 13.75 39.56 21.37 59.04 3.99 10.19 10.95 18.95 16.44 28.44 2.74 4.75 5.64 9.41 8.43 14.12 1.37 2.31 3.13 4.89-.16 6.85-3.12 1.86-4.86-.4-6.3-2.87-.49-.84-1.1-1.61-1.66-2.41-.28.12-.55.24-.83.36ZM93.9 116.28c2.07-3.83 2.11-7.39 2.9-10.72 3.93-16.6 9.09-32.67 20.03-46.21 12.17-15.05 26.88-19.4 42.7-12.61 7.85 3.37 13.85 9.06 18.75 15.96 10.64 14.97 15.35 32.21 18.92 49.87.33 1.66.27 3.43 1.96 4.9 1.24-5.77 2.2-11.16 3.57-16.44 4.19-16.19 9.78-31.76 21.32-44.44 18.94-20.83 41.53-13.88 54.74.81 12.9 14.34 18.12 32.17 22.32 50.42.6 2.59.39 5.48 2.68 8.33.66-3.24 1.13-5.81 1.7-8.37 3.2-14.32 6.94-28.45 16.26-40.26 12.26-15.53 32.83-16.5 46.56-2.34 4.57 4.72 7.91 10.26 10.58 16.2 1.94 4.32 3.59 8.76 5.6 13.69.45-1.02.75-1.4.78-1.8 1.37-20.22 3.11-40.42 3.92-60.67.64-15.76-9.16-25.13-24.93-25.13H32.48c-15.63 0-25.29 9.6-24.85 25.26.33 11.95 1.28 23.88 2.07 35.82.64 9.63 1.45 19.24 2.23 29.41 2.32-2.09 2.36-4.38 3.06-6.34 3.18-9 7.22-17.49 13.56-24.75 12.15-13.91 32.6-14.39 45.32-1 5.96 6.27 9.5 13.95 12.55 21.9 3.44 8.98 5.2 18.43 7.49 28.46Zm52.99 130.04c5.38-.43 9.86-.66 14.31-1.16 9.74-1.08 19.4-2.54 28.6-6.22 3.64-1.45 5.58-3.42 5.23-7.76-.66-8.27-.44-16.58-1.13-24.87-.32-3.91-1.72-5.84-4.98-7.56-10.27-5.43-20.39-11.14-30.56-16.76-3.08-1.7-5.88-3.69-3.82-7.79 1.99-3.95 5.24-3.29 8.56-1.91 7.81 3.24 15.62 6.49 23.46 9.66 1.16.47 2.53 1.69 3.65.76 1.05-.88.47-2.52.22-3.8-1.95-10.1-4.18-20.14-7.83-29.78-4.09-10.8-9.09-21.08-18.15-28.73-12.34-10.41-26.38-9.89-37.94 1.31-6.93 6.71-11.58 14.92-15.13 23.77-11.2 27.95-12.78 57.43-13.76 87.01-.1 2.98 1.61 4.02 3.94 4.9 14.9 5.64 30.46 7.76 45.33 8.92Zm152.57-85.99c.41-5.92-.48-12.36-1.06-18.81-1.67-18.39-4.56-36.55-10.94-53.99-3.74-10.23-8.55-19.83-16.62-27.45-12.61-11.91-27.51-11.8-39.79.29a54.221 54.221 0 0 0-7.81 9.68c-6.19 9.79-10.06 20.53-12.95 31.66-5.81 22.34-6.85 45.23-7.91 68.13-.18 3.96 1.95 5.22 4.96 6.27 26.25 9.18 52.85 10.86 79.83 3.63 12.81-3.44 13.11-4.01 12.42-17.33-.03-.5-.06-1-.12-2.09Zm83.87-12.9c.16-5.73-.29-12.85-.94-19.97-.64-7.12-1.63-14.17-3.2-21.13-2.93-13.05-7.02-25.67-16.23-35.86-9.17-10.15-24.71-10.03-33.91.08-5.94 6.54-9.34 14.46-11.97 22.72-7.96 24.97-8.97 50.84-9.88 76.72-.14 4 2.63 4.7 5.34 5.27 23.29 4.92 45.82 2.96 67.39-7.64 2.58-1.27 3.61-2.96 3.45-5.85-.23-4.3-.06-8.63-.06-14.36Zm-369-1.29c0 7.06.07 12.05-.03 17.04-.05 2.21.55 3.76 2.65 4.83 21.96 11.13 44.97 13.12 68.8 7.98 3.15-.68 4.52-2.35 4.49-5.93-.17-21.81-1.57-43.49-6.5-64.79-2.7-11.68-6.21-23.17-14.03-32.65-9.73-11.8-25.48-11.95-35.53-.56-5.37 6.09-8.89 13.21-11.54 20.77-6.27 17.92-8.18 36.53-8.32 53.31Zm85.19 10.05c.5-1.53.99-3.06 1.51-4.58 4.39-12.62 9.69-24.73 19.3-34.43 15.09-15.23 34.07-15.86 50.15-1.55 8.38 7.46 13.72 16.98 17.8 27.26 1.98 4.99 3.69 10.09 6.03 16.52.16-2.67.36-3.81.28-4.93-1.38-20.73-3.68-41.31-10-61.23-3.85-12.12-8.84-23.66-18.15-32.75-13.1-12.78-29.14-12.3-41.55 1.13a60.55 60.55 0 0 0-8.2 11.25c-8.59 15.09-12.59 31.66-15.19 48.61-1.76 11.45-3.29 22.96-1.98 34.7Z"></path>
        <path d="M52.21 188.96c1.8.13 3.08.93 3.52 2.84.44 1.93 1.11 3.83 1.38 5.79 1.3 9.44 7.12 14.04 16.09 15.7 3.16.59 8.01 0 7.93 4.86-.07 4.51-4.84 4.01-7.79 4.49-9.38 1.53-14.92 6.57-16.34 16.04-.2 1.31-.44 2.62-.79 3.89-.58 2.1-1.1 4.32-3.97 4.33-2.81.01-3.55-2.08-4.11-4.22-.54-2.08-.88-4.22-1.35-6.32-1.57-6.97-5.6-11.49-12.79-12.91-2.6-.51-5.2-1.05-7.75-1.78-1.87-.54-3.28-1.79-3.14-3.94.12-1.86 1.34-2.98 3.11-3.42 2.09-.51 4.19-1 6.31-1.4 8.29-1.57 13.21-6.38 14.58-14.79.34-2.12.96-4.19 1.48-6.28.46-1.85 1.73-2.75 3.62-2.89Zm0 39.1c2.41-3.48 4.66-6.77 8.27-8.74 1.18-.64 1.93-1.61.25-2.53-3.7-2.02-6.03-5.4-8.71-9-2.23 3.66-4.51 6.71-7.94 8.65-1.45.82-2.05 1.86-.2 2.86 3.64 1.96 5.8 5.35 8.34 8.76Z"></path>
        <path d="M94.2 73.97c-1.78-.29-3.16-1.15-3.7-2.92-.48-1.58-.91-3.2-1.12-4.83-1.36-10.43-7.56-15.76-17.72-17.02-1.14-.14-2.27-.49-3.39-.77-1.97-.49-3.3-1.6-3.3-3.77 0-2.24 1.61-3.21 3.43-3.72 2.23-.62 4.54-.99 6.81-1.45 7.47-1.53 11.99-6.01 13.52-13.5.43-2.11.74-4.26 1.32-6.32.54-1.94 1.3-3.88 3.83-3.96 2.53-.08 3.43 1.67 3.94 3.72.6 2.41 1.13 4.84 1.67 7.26 1.55 6.84 5.72 11.05 12.58 12.57 2.27.5 4.54.94 6.81 1.45 2.27.51 4.29 1.61 4.22 4.15-.05 2.24-1.83 3.38-4 3.76-.98.17-1.94.42-2.92.62-12.28 2.53-15.33 5.63-17.75 18.14-.54 2.78-.77 5.72-4.25 6.58ZM83.75 44.8c4.5 2.59 7.77 5.75 10.19 10.31 2.66-4.3 7.51-6.69 8.72-9.85 1.22-3.16-6.01-4.78-7.39-8.97-.17-.52-.74-.91-1.39-1.68-2.46 4.44-5.85 7.49-10.13 10.18Z"></path>
        <path d="M237.23 160.24c-2.57-.06-3.65-1.25-4.15-2.98-.41-1.43-.7-2.91-.91-4.38-1.43-10.06-7.15-15.57-17.24-17-2.82-.4-7.12-.1-7.12-4.57 0-4.15 4.01-4.05 6.75-4.39 10.86-1.36 16.49-7.61 17.87-18.17.13-.98.27-1.98.55-2.93.56-1.83 1.43-3.39 3.71-3.4 2.24-.02 3.3 1.3 3.78 3.26.63 2.58 1.17 5.18 1.8 7.76 1.61 6.54 5.44 10.88 12.24 12.28 2.76.57 5.5 1.22 8.23 1.94 1.75.46 3.02 1.64 3.11 3.47.1 2.06-1.11 3.41-3.13 3.9-1.61.39-3.23.79-4.86 1.06-9.02 1.48-14.79 6.25-16.17 15.65-.29 1.96-.9 3.87-1.4 5.8-.48 1.88-1.78 2.7-3.06 2.71Zm-.17-19.06c2.06-3.41 4.5-6.51 8.02-8.52 1.53-.88 1.27-1.81-.02-2.57-3.51-2.07-5.93-5.19-8.24-8.87-2.51 3.97-7.53 6.53-8.48 9.65-1.01 3.32 6.08 5.25 7.64 9.49.1.26.5.4 1.08.84Z"></path>
    </g>
</svg>