<svg preserveAspectRatio="xMidYMid meet" data-bbox="0.003 0.005 463.245 406.736" viewBox="0.003 0.005 463.245 406.736" xmlns="http://www.w3.org/2000/svg" data-type="tint" role="presentation" aria-hidden="true" aria-label="">
    <g>
        <path d="M183.22 349.27c-29.32 0-57.97-.03-86.61 0-27.65.04-55.29.37-82.93.12-7.83-.07-13.61-4.2-13.59-14.99.12-79.52 0-159.04-.05-238.56C.02 68.18-.02 40.5.02 12.83.03 5.91 4.18.86 11.5.53 18.32.22 25.14.02 31.96.02 168.8 0 305.64-.01 442.48.06c3.72 0 7.43.86 11.15 1.37 7.18.97 9.28 5.1 9.43 11.86.3 13.5.15 27 .15 40.51 0 92.02 0 184.05-.07 276.07 0 3.4-.75 6.79-1.03 10.2-.48 5.61-4.55 7.61-9.11 8.49-3.88.74-7.94.73-11.91.73-51.83.03-103.67 0-155.5-.02h-6.2c2.53 6.56 4.58 12.43 7.04 18.13 2.62 6.06 5.98 11.81 8.37 17.95 1.87 4.8 4.98 6.38 9.79 6.37 21.17-.06 42.33 0 63.5.09 1.77 0 3.54.58 5.32.7 4.65.31 5.91 3.1 5.73 7.27-.19 4.32-3.19 5.77-6.61 6.8-.92.28-1.99.11-2.99.11-91.84-.02-183.67-.04-275.51-.08-7.16 0-11.13-4.87-9.05-10.65 1.07-2.97 3.18-3.27 5.82-3.3 20.92-.25 41.84-1.06 62.75-.66 9.16.18 14.29-3.6 17.53-11.33 3.91-9.34 7.7-18.72 11.51-28.1.3-.73.32-1.57.65-3.29Zm.82 42.16h96.82c-5.72-13.25-11.2-25.48-16.22-37.89-1.23-3.04-2.88-3.89-5.72-3.9-14.97-.07-29.96-.72-44.9-.14-15.56.61-12.44-2.87-18.99 12.14-.13.29-.26.59-.38.89-3.81 9.37-7.62 18.75-11.44 28.12.28.26.56.52.84.79Zm263.85-105.2V15.52H15.99v270.7h431.89ZM15.5 333.95h432.42v-31.62H15.5v31.62Z"></path>
        <path d="M346.52 237.77s.18.05.21.17c3.49 10.85 3.38 11.02-8.32 12.67-2.41.34-4.82.66-7.23 1-7 1-12.03-2.78-15.31-7.96-6.69-10.55-14.02-20.88-16.88-33.43-.67-2.96-2.4-5.71-2.84-8.67-.51-3.41.31-7.02-.21-10.43-1.06-7.03-3.24-13.92-3.82-20.97-.65-7.93-5.65-13.48-8.9-20.03-1.47-2.97-2.75-6.3-2.97-9.54-.2-2.93-1.66-3.46-3.74-4.04-8.36-2.34-16.74-4.62-25.07-7.09-2.41-.72-5.21-1.43-6.9-3.09-5.97-5.88-13.28-3.58-20.09-3.62-1.97 0-3.78 3.04-5.96 3.74-6.99 2.25-14.14 4.02-21.21 6.07-3.86 1.12-7.8 2.12-11.44 3.76-1.61.73-3.59 2.86-3.66 4.43-.32 7.28-4.08 12.77-8.07 18.36-1.51 2.11-2.4 4.81-3.03 7.37-.93 3.74-1.03 7.7-2.13 11.38-1.52 5.07-3.08 9.83-2.09 15.43 1.79 10.12-3.94 18.77-6.96 27.87-1.44 4.33-4.62 8.08-7.03 12.08-.92 1.52-2.21 2.89-2.82 4.52-3.95 10.52-11.61 15.21-22.57 13.76-9.41-1.24-18.36-4.29-23.68-12.9-2.11-3.42-2.6-7.84-3.78-11.82-.32-1.08-.17-2.39-.74-3.28-5.77-9.03-5.17-18.59-2.22-28.21 2.62-8.54 3.89-17.61 10.18-24.8 1.56-1.78 1-5.3 1.77-7.92 1.17-3.96 2.74-7.8 3.98-11.75.81-2.59 1.91-5.3 1.85-7.93-.21-9.43 3.54-17.21 9.98-23.53 4.33-4.25 5.68-9.17 6.17-14.76 1.1-12.66 10.35-24.14 23.75-26.09 7.14-1.04 13.19-4.04 19.22-8.12 6.34-4.29 13.73-6.95 21.99-5.04 3.18.74 6.26.44 8.92-2.98 6.31-8.1 14.77-11.56 25.37-11.09 8.32.37 16.28.71 22.97 6.3 2.08 1.74 3.8 3.93 5.98 5.49 1.63 1.16 3.85 2.5 5.62 2.29 11.25-1.36 20.76 1.98 29.71 8.8 3.34 2.55 8.26 3.35 12.6 4.24C321 81.25 329 89.62 332.08 103.3c1.18 5.25 2.6 10.58 4.91 15.4 1.81 3.77 5.86 6.48 7.62 10.26 1.92 4.12 2.28 8.94 3.42 13.43.9 3.54 1.84 7.07 2.94 10.55.77 2.42 2.89 4.88 2.6 7.1-.99 7.7 4.57 12.59 7.06 18.77 1.59 3.94 2.6 8.12 3.92 12.33-7.98.76-9.58-.33-11.95-6.45-.98-2.52-2.8-4.71-4.11-7.12-1.51-2.79-4.01-5.63-4.07-8.49-.12-6.13-2.5-11.21-4.88-16.54-1.15-2.57-1.51-5.69-1.46-8.55.16-8.76-3.77-15.62-10.2-20.78-3.52-2.83-4.3-6.12-4.89-9.95-.62-3.98-1.17-7.99-2.01-11.93-1.84-8.63-10.09-12.97-17.7-13.62-6.79-.58-12.4-2.74-17.61-6.95-6.3-5.09-13.25-7.69-21.64-5.3-7.61 2.16-7.75 1.87-12.7-5.17-3.87-5.5-9-8.16-15.78-8.95-5.82-.68-11.34-.82-16.36 2.24-2.97 1.81-5.91 4.11-8 6.84-4.75 6.22-7.36 7.43-14.51 5.04-7.36-2.46-13.35.24-19.03 4.66-5.27 4.1-10.88 7.72-17.9 7.35-7.74-.41-18.23 8.62-18.79 16.78-.2 2.92-.59 5.82-.99 8.72-.52 3.73-1.4 7.13-4.61 9.81-7.3 6.1-11.46 13.67-10.5 23.68.24 2.52-1.23 5.26-2.17 7.81-1.45 3.9-4.68 7.85-4.36 11.54.63 7.31-4.43 11.71-6.72 17.44-3.6 9.03-6.72 18.11-6.57 27.97.02 1.37.89 2.72 1.3 4.09 1.23 4.11 2.36 8.25 3.66 12.33 1.32 4.14 2.87 7.96 7.32 10.13 5.09 2.48 10.13 4.59 15.88 3.75 1.47-.21 3.44-.86 4.12-1.97 4.88-7.91 10.53-15.58 13.85-24.13 2.73-7.02 7.51-13.85 5.92-22.3-.67-3.55-1.23-7.67-.06-10.89 2.37-6.5 4.76-12.73 4.12-19.89-.2-2.17.84-5.26 2.43-6.65 6.53-5.7 8.37-13.17 9.53-21.2.26-1.78 2.02-3.91 3.67-4.84 10.13-5.69 21.53-7.45 32.62-10.19 2.65-.66 5.63-2.34 7.21-4.48 2.49-3.37 5.47-3.4 8.93-3.29 3.34.11 6.72-.31 10.03.03 3.12.32 7.43.29 9 2.22 4.58 5.63 11 5.77 16.95 7.61 8.3 2.56 16.62 5.09 24.71 8.22 1.76.68 3.45 3.78 3.64 5.9.68 7.34 2.79 13.76 8.47 18.81 1.25 1.11 2.69 3.11 2.54 4.54-.92 8.82 2.86 16.45 5.45 24.43.61 1.87.58 4.25 0 6.13-1.71 5.57-1.3 10.59 1.66 15.74 1.83 3.18 2.12 7.22 3.83 10.49 4.05 7.75 8.45 15.33 12.89 22.87 2.57 4.37 7.02 3.19 10.74 2.59 3.74-.61 7.31-2.29 11.06-3.53Z" fill="#744D37"></path>
        <path d="M373.33 237.79c-1.89 4.25-3.47 7.56-4.84 10.96-1.3 3.24-2.38 6.57-4.09 11.34-7.06-21.29-13.67-41.18-20.67-62.28 20.67 6.94 40.54 13.6 60.4 20.27l.09 1.09c-6.6 2.6-13.21 5.19-19.93 7.83 6.81 6.57 13.63 13.16 21.13 20.41-3.54 3.27-6.45 5.72-9.05 8.46-2.11 2.23-3.62 2.16-5.69-.06-5.53-5.92-11.23-11.68-17.36-18.02Zm23.46 9.4c-7.77-7.56-15.23-14.84-22.8-22.22 4.83-1.96 9.32-3.78 14.95-6.07-12.62-4.2-24.05-8-36.47-12.14 4.22 12.33 7.96 23.27 11.7 34.21.52-.15 1.03-.29 1.55-.44 1.72-4.02 3.45-8.03 5.4-12.58 7.72 7.89 15.01 15.33 22.31 22.8 1.08-1.14 1.87-1.98 3.36-3.56Z" fill="#754F39"></path>
        <path d="M231.36 71.53c11.15 0 17.83 5.51 17.62 14.99-.22 9.49-7.12 17.1-18.16 17.12-11.7.02-16.52-9.13-16.74-16.45-.31-10.03 6.08-15.66 17.29-15.66Zm-.1 22c4.01.04 7.78-3.07 7.78-6.42s-3.76-6.53-7.82-6.61c-4.22-.08-7.04 2.4-7.18 6.31-.15 4.19 2.52 6.67 7.21 6.72Z" fill="#744D37"></path>
        <path d="M192.06 82.53c10.4-1.16 16.91 7.47 16.97 15.72.08 10.88-7.73 16.74-17.55 17.12-7.75.3-15.22-6.89-15.53-16.72-.24-7.68 7.09-17.89 16.11-16.12Zm.42 10.01c-4.46-.06-6.36 1.64-6.47 5.77-.1 3.89 2.63 7.08 6.17 7.24 3.04.13 6.68-3.28 6.84-6.42.21-3.94-2.37-6.53-6.55-6.59Z" fill="#744D37"></path>
        <path d="M270.15 82.53c8.45-1.46 17.14 6.79 16.87 16.23-.3 10.3-8.27 16.23-17.43 16.69-7.01.35-16.33-7.04-15.67-17.44.57-9.15 6.73-15.5 16.23-15.48Zm-.04 10.04c-4.7-.79-6.17 2.03-6.02 6.01.14 3.6 1.26 6.81 5.76 6.96 3.55.11 7.53-3.63 7.13-7.11-.43-3.81-2.36-6.45-6.88-5.85Z" fill="#744D37"></path>
        <path d="M125.18 80.14c-1.85 3.81-4.28 4.05-7.37 2.37-8.69-4.71-17.49-9.24-26.05-14.17-1.25-.72-1.44-3.25-2.13-4.95 2.1-.49 4.56-1.92 6.21-1.28 3.55 1.37 6.7 3.79 9.98 5.83 6.37 3.98 12.72 8.01 19.36 12.19Z" fill="#754F39"></path>
        <path d="M117.59 95.54H95.22c-7.83 0-8.67-1.46-4.94-8.76 8.25 1.24 16.51 2.82 24.85 3.58 4.46.41 3.39 2.43 2.46 5.18Z" fill="#744D37"></path>
        <path d="M131.98 67.63c-2.01 3.73-4.02 3.7-7.03.55-4.75-4.98-10.07-9.4-14.86-14.34-.82-.84-.86-3.68-.09-4.57 2.08-2.39 4.84-2.39 7 .18 5.04 5.99 9.96 12.08 14.97 18.18Z" fill="#764F3A"></path>
    </g>
</svg>