<svg preserveAspectRatio="xMidYMid meet" data-bbox="-0.014 -0.013 164.435 258.888" viewBox="-0.014 -0.013 164.435 258.888" xmlns="http://www.w3.org/2000/svg" data-type="shape" role="presentation" aria-hidden="true" aria-label="">
    <g>
        <path d="M79.57 70.47c3.65 2.43 7.67 3.58 11.63 4.85 1.52.49 3.58.74 3.03 2.96-.64 2.59-2.64 1.51-4.28 1.06-8.27-2.26-15.71-6.29-22.79-10.99-9.87-6.55-20.33-10.18-32.44-8.63C17.61 61.92 5.14 75.67 4.28 93.7c-.55 11.64 2.63 22.42 6.97 33 2.98 7.25 6.13 14.42 8.22 22.03 2.7 9.81.69 19.55.26 29.36-1.16 26.45 6.06 50 25.09 69.18 2.29 2.3 4.94 4.18 7.66 5.97 2.18 1.44 4.35 1.94 6.58.32 2.35-1.7 2.72-4.11 1.86-6.69-2.73-8.22-4.21-16.67-4.58-25.3-.61-14.15 1.14-27.87 7.8-40.63 1.8-3.45 4.07-6.57 7.01-9.16 6.97-6.14 15.45-6.11 22.23.24 7.33 6.86 10.61 15.87 12.66 25.35 3.43 15.91 2.6 31.71-2.01 47.31-.28.96-.63 1.89-.85 2.86-.53 2.38-.05 4.49 2.02 5.99 2.08 1.51 4.17 1.25 6.27-.08 8.97-5.67 15.63-13.5 20.84-22.59 10.53-18.36 14.39-38.18 11.71-59.08-1.51-11.73-.13-22.81 4.28-33.67 3.93-9.68 8.5-19.14 10.53-29.5 1.7-8.7 1.9-17.33-.98-25.85-5.07-15.03-18.7-24.06-35.35-23.42-.5.02-1 .09-1.49.1-1.72.05-3.93.52-4-2.03-.06-2.27 2.02-2.05 3.63-2.14 27.31-1.42 46.1 18.41 43.55 45.66-1.05 11.23-4.76 21.59-9.09 31.83-3.25 7.69-6.37 15.4-7.4 23.82-.6 4.91-.02 9.71.52 14.54 2.65 23.88-1.9 46.14-15.06 66.41-4.94 7.61-11.04 14.15-18.72 19.09-4.52 2.91-8.17 2.99-11.79.32-3.62-2.67-4.76-6.65-3.22-11.7 5.69-18.63 6.3-37.25-.11-55.84-1.51-4.38-3.65-8.47-6.65-12.05-6.58-7.86-14.63-7.85-21.14.12-5.44 6.65-8.02 14.57-9.57 22.86-2.82 15.12-1.77 30.02 2.82 44.7 2.03 6.48-.51 11.72-6.27 13.47-3.18.97-5.87-.08-8.47-1.75-11.26-7.26-18.98-17.53-24.76-29.37-8.76-17.97-11.76-36.97-9.09-56.75 1.44-10.7-.11-20.81-4.09-30.73-4.26-10.62-9.33-20.96-11.17-32.42C-1.36 93.24.12 79.77 9.8 68.34c11-12.98 31.66-16.98 48.45-9.69 1.25.54 2.62 1 3.67 1.83 10.15 7.93 21.05 5.65 32.03 2.49.96-.27 1.89-.64 2.84-.92 1.33-.4 2.64-.29 3.13 1.16.49 1.46-.49 2.27-1.8 2.78-4.78 1.87-9.71 3.12-14.83 3.63-1.18.12-2.49-.27-3.73.86Z"></path>
        <path d="M106.3 74.43c0-8.48-.02-16.97.01-25.45 0-1.7-.29-3.99 2.21-3.96 2.55.03 2.06 2.35 2.06 4.02.03 16.84 0 33.68.05 50.52 0 1.57-.75 3.47 1.98 4.01 2.32.46 4.22 2.78 6.74-.3 3.23-3.94 7.14-7.31 10.75-10.93 1.12-1.13 2.38-2.19 3.82-.73 1.49 1.52.18 2.71-.89 3.78-3.61 3.62-7.25 7.22-10.83 10.86-1.05 1.07-2.73 1.9-1.41 4.01 1.29 2.04 1.15 5.01 5.09 4.64 4.95-.46 9.97-.13 14.96-.09 1.61.01 3.59-.1 3.49 2.28-.09 2.12-1.93 1.9-3.42 1.91-5.24.01-10.48.04-15.72-.01-1.61-.02-3.06.03-3.3 2.06-.24 2.05-3.08 3.78-.2 6.25 3.68 3.16 7 6.75 10.36 10.27 1.23 1.29 3.98 2.68 1.7 4.78-2.15 1.99-3.5-.71-4.81-1.97-3.51-3.36-6.92-6.84-10.34-10.3-1.03-1.04-1.97-1.99-3.46-.76-1.6 1.31-4.85.45-4.64 4.19.3 5.35.07 10.72.07 16.09 0 1.57-.06 3.24-2.16 3.2-2.08-.04-2.11-1.78-2.12-3.3-.02-4.99-.01-9.98-.01-14.97 0-1.83.41-3.71-2.27-4.33-2.27-.53-4.12-2.33-6.45.5-3.07 3.74-6.77 6.97-10.24 10.39-1.2 1.18-2.5 3.05-4.31 1.17-1.64-1.71.13-2.92 1.22-4.03 3.68-3.73 7.38-7.44 11.11-11.12 1.03-1.01 2.07-1.96.8-3.4-1.38-1.56-.37-4.93-4.11-4.75-5.23.26-10.48.08-15.72.05-1.57 0-3.71.37-3.76-1.93-.06-2.54 2.21-2.25 3.9-2.26 5.11-.05 10.24-.26 15.34.05 3.91.24 3.07-3.21 4.46-4.91 1.35-1.64-.27-2.44-1.15-3.33-3.68-3.73-7.41-7.41-11.1-11.13-1.05-1.06-2.47-2.26-1.09-3.8 1.55-1.73 2.89-.38 4.07.8 3.8 3.79 7.62 7.55 11.38 11.38 1.05 1.07 2 1.9 3.44.7 1.5-1.25 4.48-.47 4.39-3.97-.23-8.72-.08-17.46-.08-26.19h.15Zm2.22 52.13c4.41-.01 8.4-2.98 9.42-7.01 1.11-4.41-.93-9.1-4.76-11.17-1.84-.99-2.74-.87-2.61 1.49.09 1.73.02 3.48 0 5.22-.02 1.25-.55 2.24-1.88 2.36-1.58.14-2.22-.97-2.32-2.33a35.54 35.54 0 0 1-.05-4.84c.18-2.8-.94-2.95-2.99-1.65-3.72 2.36-5.48 6.88-4.23 11 1.33 4.42 4.77 6.94 9.43 6.93Z"></path>
        <path d="M152.47 30.88c-2.87 0-5.74.16-8.59-.03-5.63-.38-9.26-4.03-9.29-9.66-.01-2.75-.69-3.82-3.54-3.57-2.72.24-5.48-.01-8.22.08-7.22.26-12.06 5.18-12.22 12.37-.04 1.87 0 3.74-.04 5.61-.03 1.27-.65 2.21-1.96 2.31-1.36.1-1.91-.9-2.22-2.08-3-11.72 5.24-22.41 17.37-22.5 2.87-.02 5.73-.07 8.6.02 1.61.05 2.05-.57 2.19-2.16.72-8.66 3.63-11.25 12.34-11.26 4.36 0 8.72-.01 13.09 0 1.7 0 4.04-.39 4.08 2.04.04 2.71-2.44 2.27-4.24 2.28-4.98.04-9.97-.04-14.95.03-4.06.06-5.94 1.86-6.09 5.91-.12 3.36-.1 6.72-.01 10.08.11 4.39 2.05 6.35 6.47 6.43 5.11.09 10.22.02 15.33.03 1.63 0 3.61-.19 3.55 2.15-.05 2.04-1.9 1.97-3.4 1.99-2.74.03-5.48 0-8.23 0v-.08Z"></path>
    </g>
</svg>