<svg preserveAspectRatio="xMidYMid meet" data-bbox="0 0.001 383.117 243.884" viewBox="0 0.001 383.117 243.884" xmlns="http://www.w3.org/2000/svg" data-type="shape" role="presentation" aria-hidden="true" aria-label="">
    <g>
        <path d="M0 57.49c.72-2.74 1.33-5.52 2.17-8.22 5.76-18.66 25.08-29.76 44.12-25.65 8.57 1.85 16.45 5.69 24.89 7.92 9.31 2.46 17.72.19 26.13-3.31.91-.38 1.22-1.14 1.65-1.9 13.06-23.44 34.16-31.45 59.55-22.86 7.53 2.55 14.65 6.13 22.54 7.85 10.78 2.34 21 1.48 31.07-2.84 9.06-3.89 18.25-7.23 28.21-8.23 19.4-1.94 35.86 7.55 43.4 25.48.86 2.04 2.06 3.13 4.13 3.8 10.51 3.39 20.88 4.15 31.39-.25 8.4-3.52 17.06-6.19 26.33-6.51 14.61-.5 25.44 5.55 31.74 18.69 8.4 17.54 7.07 35.29-.14 52.88-1.7 4.15-4.01 8.04-6.77 11.59-1.81 2.32-2.47 4.8-2.19 7.66.64 6.57 1.63 13.14 1.78 19.73.61 26.63-4.87 51.73-19.6 74.34-3.03 4.65-6.86 8.56-11.9 11.11-8.76 4.44-16.99.9-19.6-8.53-1.51-5.47-1.41-11.06-1.1-16.7.67-12.21.98-24.43-1.89-36.47-.84-3.53-2-6.95-3.99-10.02-4.01-6.17-9.61-6.76-14.5-1.32-4.92 5.47-7.56 12.05-7.67 19.39-.18 12.47 0 24.94-.06 37.41-.03 4.41-.91 8.65-3.2 12.53-3.8 6.42-10.14 8.1-16.64 4.39-4.44-2.53-7.45-6.54-10.95-10.77-1.28 2.49-2.43 4.72-3.59 6.95-4.43 8.45-9.7 16.26-16.97 22.59-4.92 4.28-10.44 6.43-16.89 4.24-6.54-2.22-9.27-7.43-10.32-13.9-1.45-8.94-.87-17.88-.32-26.84.87-14.28.14-28.42-4.49-42.11-1.2-3.55-2.9-6.9-5.43-9.74-4.16-4.67-9.07-5.39-14.38-2.03-4.85 3.07-7.69 7.72-9.79 12.88-2.53 6.21-3.42 12.75-3.6 19.38-.32 11.6-.15 23.19.22 34.79.15 4.6-.15 9.22-.4 13.83-.34 6.39-3.4 11.07-9.23 13.82-5.82 2.75-10.96 1-15.65-2.68-8.13-6.37-13.3-15.09-18.38-23.83-1.44-2.47-2.72-5.04-4.09-7.59-1.34.11-1.7 1.31-2.38 2.08-2.56 2.92-5.35 5.59-8.67 7.64-4.55 2.81-9.32 3.65-14.12.76-4.84-2.91-7.52-7.36-7.5-12.98.04-10.34 1.07-20.66.68-31.02-.26-6.87-.94-13.68-2.96-20.29-.99-3.24-2.3-6.33-4.5-8.96-3.81-4.56-8.38-4.94-12.54-.69-6.17 6.3-8.62 14.18-8.67 22.82-.06 8.85.21 17.71.18 26.56-.01 4.23-.38 8.46-.58 12.7-.15 3.35-1.46 6.29-3.27 9.02-3.4 5.13-8.35 6.59-14 4.16-3.76-1.62-6.77-4.26-9.2-7.47-16.87-22.4-26.82-47.09-24.7-75.69.42-5.59.89-11.18 1.42-16.77.59-6.21-.04-11.93-3.62-17.5C5.89 94.67 1.65 85.93 0 76.2V57.49Zm202.39 80.56c6.76 3.45 10.42 9.49 13 16.19 3.84 9.99 5.28 20.5 5.39 31.14.12 11.84-.15 23.69-.21 35.53-.01 2.61-.13 5.23.94 7.73 1.81 4.24 3.75 5.02 7.88 3.04 4.94-2.38 8.02-6.67 10.91-11.03 10.99-16.6 16.65-35.21 20.2-54.58 2.61-14.24 2.59-28.51.46-42.79-.25-1.69.13-3.72-2.99-3.48-7.95.6-15.93.93-23.9 1.12-2.43.06-2.98.94-2.8 3.09.15 1.86.03 3.74.03 5.61 0 6.58-1.34 7.95-7.78 7.96h-17.95c-1.09 0-2.26-.35-3.21.54-3.07-4.3-2.62-9.22-2.5-14.09 0-.12-.01-.25 0-.37.09-1.2-.32-1.83-1.66-1.86-5.73-.12-11.42-.97-17.17-.73-1.61.07-2.2.54-2.15 2.17.1 2.74.07 5.49.01 8.23-.09 4.14-1.86 6.04-5.87 6.09-6.61.08-13.22.09-19.82 0-3.8-.05-5.61-1.98-5.71-5.87-.08-3.11-.19-6.25.03-9.35.19-2.67-.87-3.41-3.38-3.47-3.86-.1-7.71-.52-11.55-.9-8.3-.81-8.46-.86-9.48 7.16-2.92 23.08-1.94 45.79 7.24 67.56 5.43 12.88 11.26 25.57 20.77 36.09 2.01 2.23 4.23 5.41 7.69 4.25 3.91-1.31 3.6-5.31 3.62-8.65.07-13.46.02-26.93.06-40.39.02-7.75.55-15.45 3-22.88 2.96-8.95 7.42-16.9 15.52-22.23 7.04-4.63 15.61-4.87 21.38-.83Zm41.58-27.54v-.4c3.99-.19 7.97-.44 11.96-.56 2.46-.07 4.1-.44 4.06-3.67-.04-3.01 1.77-5.59 3.34-8.18 12.35-20.37 19.61-41.54 11.55-65.66-3.86-11.56-13.32-19.93-25.45-21.07-11.31-1.06-21.8 2.12-31.84 6.61-15.37 6.88-30.75 7.52-46.51 1.82-7.6-2.75-15.13-5.64-22.9-7.96-19.6-5.86-40.02 9.7-42.65 29.11-2.17 16.06.15 31.19 8.93 45.2 3.55 5.65 7.35 11.36 8.89 18.01.55 2.39 1.62 2.96 3.74 3.11 4.35.31 8.69.75 13.02 1.24 7.17.81 7.17.84 7.35-6.21.11-4.33 1.86-6.18 6.13-6.22 6.48-.06 12.97-.07 19.45 0 3.89.05 5.7 1.9 5.83 5.74.08 2.24.14 4.5-.02 6.73-.14 2.02.64 2.57 2.57 2.51 4.23-.15 8.46.06 12.69.49 5.73.58 5.74.45 5.74-5.43 0-1.5-.06-3 .02-4.49.18-3.61 2-5.49 5.65-5.54 6.73-.09 13.47-.1 20.2 0 3.61.06 5.4 1.98 5.54 5.65.09 2.24.13 4.5 0 6.73-.13 2.04.71 2.55 2.62 2.47 3.36-.14 6.72-.04 10.09-.04Zm45.04-58.08c-.02 8.55-1.45 16.88-4.19 24.96-3.13 9.24-7.28 17.99-12.95 25.99-.93 1.31-2.08 2.97-1.37 4.46.64 1.35 2.49.52 3.75.4 27.08-2.44 53.82-6.9 80.53-12.01 10.44-2 14.31-7.22 16.11-16.41 2.21-11.27 2.51-22.31-2.59-32.9-5.43-11.27-14.93-15.69-27.13-13.19-5.38 1.1-10.69 2.42-15.8 4.39-11.43 4.39-23.06 6.23-35.14 3.13-1.89-.49-2.24.3-1.88 1.88.7 3.07.61 6.19.65 9.31ZM20.5 97.17c5.1 6.91 5.57 14.65 4.85 22.64-.28 3.1-.47 6.22-.89 9.31-3.59 26.79 4.02 50.77 18.33 73.04 1.88 2.93 4.02 5.74 6.94 7.77 2.05 1.42 3.53 1.47 4.27-1.51.65-2.59.73-5.18.71-7.79-.07-11.23-.43-22.45-.28-33.68.16-12.26 4.19-23.09 14-30.95 9.21-7.38 20.19-5.58 27.08 3.99 3.27 4.54 4.94 9.75 6.22 15.11 3.24 13.52 2.52 27.23 1.92 40.94-.13 2.86-.3 5.73-.34 8.59-.03 2.09.63 4.12 2.46 5.17 1.92 1.1 3.64-.37 5.06-1.47 2.97-2.3 5.31-5.24 7.64-8.18 1.56-1.96 1.72-3.73.77-6.13-6.19-15.74-9.23-32.09-8.21-49.02.49-8.2 1.43-16.39 2.52-24.54.49-3.66-.54-4.92-4.23-5.36-18.07-2.15-35.96-5.44-53.74-9.37-11.66-2.58-23.2-5.63-35.09-8.56Zm92.03 7.78c-2.83-6.82-6.06-12.56-9.27-18.3-4.61-8.25-7.54-17-8.45-26.47-.63-6.54-.46-13.06-.07-19.67-16.13 4.05-18.98 3.86-34.83-1.63-5.29-1.83-10.66-3.41-16.03-4.98-15.14-4.42-29.11 7.49-31.93 18.88-2.21 8.92-1.68 17.77.03 26.67.48 2.5 1.79 3.68 4.21 4.49 22.34 7.54 45.21 12.92 68.41 16.95 9.05 1.58 18.12 3.1 27.94 4.06Zm245.78 1.6c-.44-.13-.68-.29-.88-.24-26.41 5.96-53.14 9.83-80.09 12.27-6.89.62-7.01.81-6.05 7.51 3.02 21.23 1.3 42.16-5.44 62.38-2.46 7.37-.96 12.28 4.04 17.08 2.07 1.99 3.8 5.96 6.79 4.83 3.07-1.15 2.51-5.34 2.53-8.39.07-12.72-.34-25.45.1-38.15.37-10.87 4.64-20.39 12.97-27.62 8.56-7.44 19.98-6.13 27.05 2.78 3.74 4.7 5.55 10.26 6.95 15.97 3.14 12.76 2.65 25.74 1.98 38.68-.21 4.14-.3 8.23.49 12.28.92 4.7 2.36 5.22 6.3 2.54 4.45-3.03 7.48-7.34 9.96-11.96 11.79-22.02 16.48-45.49 13.99-70.37-.65-6.53-1.86-13.04-.7-19.59Zm-147.97 10.07v2.98c0 7.83 0 7.74 7.89 7.58 2.2-.04 2.55-.83 2.66-2.81.23-4.29-.83-8.48-.2-12.85.77-5.3.35-5.36-5.04-5.36q-5.31 0-5.31 5.25v5.21Zm-52.36.1h-.04v2.61c0 8.46 0 8.41 8.36 7.83 1.58-.11 2.15-.52 2.15-2.15-.02-5.64-.7-11.28-.05-16.93.1-.84.13-1.89-1.16-1.87-2.95.03-6.3-1.01-8.72.45-1.6.97-.43 4.15-.53 6.34-.06 1.24-.01 2.48-.01 3.72Z"></path>
        <path d="M116.83 51.73c-.14-3.69.1-6.78.65-9.87 2.37-13.46 15.16-22.03 28.53-19.24 5.19 1.08 9.85 3.47 14.65 5.48 20.36 8.53 40.63 8.62 61.01.08 5.61-2.35 11.38-4.4 17.46-5.32 15.24-2.32 24.14 3.83 26.46 19.07 2.32 15.25.2 29.77-8.81 42.81-2.4 3.48-4.57 7.14-6.63 10.83-1.52 2.74-3.53 3.87-6.42 2.55-2.93-1.34-3.83-4.48-2.39-7.55 2.13-4.52 4.83-8.71 7.51-12.91 6.62-10.39 8.27-21.77 6.43-33.72-1.47-9.55-5.26-12.16-14.63-10.52-7.89 1.38-15.12 4.71-22.57 7.5-11.06 4.14-22.73 5.57-34.58 4.23-11.77-1.33-22.54-6.01-33.46-10.2-5.5-2.11-11.01-4.1-16.67-.07-4.04 2.88-5.68 6.85-5.99 11.5-.73 10.68.71 20.87 6.83 30.04 2.07 3.1 3.9 6.38 5.71 9.64 1.8 3.24 1.02 6.62-1.74 8.14-2.93 1.62-5.6.53-7.59-3.07-1.99-3.59-3.88-7.25-6-10.77-5.43-8.99-7.99-18.72-7.76-28.64Z"></path>
    </g>
</svg>