<svg preserveAspectRatio="xMidYMid meet" data-bbox="0 0.001 374.41 323.334" viewBox="0 0.001 374.41 323.334" xmlns="http://www.w3.org/2000/svg" data-type="shape" role="presentation" aria-hidden="true" aria-label="">
    <g>
        <path d="M92.37 116.71c-2.46-7.38-5.4-14.52-7.19-21.94-5.58-23.16-4.84-46.1 4.85-68.11 5.47-12.41 14.09-22.07 28.01-25.5 10.23-2.52 20.11-.68 29.64 3.12 5.42 2.16 10.61 4.93 15.79 7.64 15.73 8.23 31.51 8.45 47.15.08 9.6-5.14 19.23-9.96 30.21-11.45 15.86-2.15 28.33 3.41 37.75 16.19 7.62 10.33 11 22.2 12.74 34.7 2.62 18.78 1.62 40.48-9.86 65.52 2.45-1.67 4.36-3.08 6.37-4.32 12.61-7.8 23.45-4.59 29.74 8.84 4.82 10.3 6.28 21.47 8.12 32.53 2.16 13.03 4.09 26.1 6.29 39.13.45 2.65 1.36 5.33 2.58 7.73 1.95 3.85 5.26 5.81 9.72 5.77 7.49-.07 14.97-.03 22.46 0 5.58.02 7.64 2.08 7.64 7.71.02 24.45.06 48.91-.01 73.36-.06 20.55-15.17 35.59-35.82 35.6-65.51.04-131.03.02-196.54.02H37.19C14.62 323.32.01 308.68 0 286.06v-71.12c0-6.41 1.87-8.31 8.17-8.32 6.61-.01 13.23 0 19.84 0 8.31 0 12.46-3.15 13.94-11.44 2.43-13.62 4.32-27.33 6.76-40.94 1.63-9.06 3.8-18.02 5.82-27 .38-1.68 1.12-3.3 1.83-4.89 6.44-14.44 17.66-17.77 30.93-9.17 1.73 1.12 3.39 2.36 5.07 3.54ZM12.04 218.63v3.8c0 21.58-.03 43.17.01 64.75.03 14.49 9.68 24.08 24.27 24.08 100.57.02 201.15.02 301.72 0 14.6 0 24.26-9.58 24.29-24.07.04-21.58.01-43.17 0-64.75 0-1.2-.12-2.39-.2-3.81h-16.04c-14.11 0-23.23-7.53-25.65-21.54-2.63-15.23-4.71-30.55-7.58-45.73-1.63-8.64-3.89-17.24-6.77-25.55-2.05-5.9-5.71-6.92-10.87-3.32-5.17 3.61-9.64 8.21-14.45 12.33-3.25 2.78-4.94 5.99-3.82 10.44.48 1.9.31 3.97.39 5.96 1.51 38.19-13.4 68.26-44.62 90.28-3.89 2.74-8 3.34-12.31 1.04-4.62-2.46-6.13-6.59-6.14-11.55 0-18.59.23-37.18-.14-55.77-.33-16.66-16.6-28.78-32.86-25.02-12.72 2.95-21.09 13.39-21.17 26.81-.11 18.09-.03 36.18-.04 54.27 0 4.83-1.59 8.86-6.08 11.18-4.58 2.37-8.85 1.55-12.97-1.4-12.09-8.68-22.47-18.98-30.19-31.79-12.43-20.62-15.47-43.11-13.33-66.65.12-1.27.22-3.09-.51-3.81-5.47-5.42-10.78-11.12-16.88-15.78-5.94-4.54-9.79-3.29-12.37 3.72-2.44 6.62-4.29 13.55-5.55 20.5-3.01 16.55-5.4 33.21-8.27 49.79-2.43 14.04-11.54 21.56-25.64 21.56H12.01Zm214.35 12.5c12.85-9.11 22.75-19.6 29.57-32.82 10.03-19.44 11.12-40.1 7.91-61.25-1.01-6.61-.76-12.73 2.81-18.73 12.08-20.27 15.9-42.22 12.64-65.5-1.45-10.36-4.06-20.28-10.4-28.87-6.65-9-15.33-13.12-26.63-11.43-9.32 1.39-17.47 5.57-25.65 9.91-4.36 2.31-8.95 4.6-13.71 5.65-16.32 3.57-32.02 2.48-46.92-6.37-6.34-3.76-13.5-6.5-20.63-8.46-12.93-3.56-23.28.81-30.72 11.96-1.65 2.48-3.2 5.09-4.33 7.84-6.27 15.26-7.38 31.19-5.61 47.39 1.48 13.57 5.99 26.19 12.97 37.91 2.93 4.92 4.02 10.02 3.24 15.74-.91 6.66-1.66 13.38-1.86 20.09-.95 31.5 11.39 56.63 36.75 75.35.52.38 1.17.59 2.19 1.09v-4.95c.05-17.22-.29-34.45.25-51.65.64-20.25 18.16-36.38 38.76-36.49 20.76-.1 38.48 16.06 39.13 36.49.54 17.2.2 34.43.25 51.65v5.45Z"></path>
        <path d="M53.31 107.73c-1.96-.79-3.46-.99-4.4-1.83-3.06-2.73-6.11-5.51-8.79-8.6-2.14-2.46-1.88-5.41.41-7.76 2.28-2.34 5.17-2.75 7.73-.62 3.15 2.62 6.29 5.37 8.79 8.56 1.13 1.45 1.44 4.38.78 6.14-.64 1.72-2.99 2.8-4.53 4.1Z"></path>
        <path d="M44.89 120.36c-3.88-.95-8.19-1.72-12.3-3.11-3.12-1.06-4.16-3.86-3.37-7.02.77-3.07 3.13-4.73 6.13-4.3 4.17.59 8.33 1.56 12.34 2.84 2.91.93 4.28 3.49 3.69 6.54-.62 3.21-2.88 4.79-6.5 5.05Z"></path>
        <path d="M338.86 105.75c3.41.29 5.69 1.57 6.35 4.71.67 3.22-.51 5.9-3.64 6.89-4.01 1.28-8.17 2.3-12.34 2.84-3.21.42-5.5-1.56-6.2-4.75-.68-3.07.66-5.66 3.53-6.62 4.11-1.38 8.43-2.13 12.3-3.07Z"></path>
        <path d="M335.52 92.24c.09 5.48-10.2 15.51-14.21 14.75-1.8-.34-4.06-1.84-4.77-3.41-.71-1.59-.48-4.51.59-5.83a51.92 51.92 0 0 1 9.4-8.98c1.33-.98 4.19-.92 5.83-.18 1.62.73 2.57 2.92 3.16 3.65Z"></path>
        <path d="M71.33 92.47c-.09 4.23-1.63 6.36-4.67 7.01-3 .65-5.66-.42-6.69-3.39a83.658 83.658 0 0 1-3.24-12.22c-.6-3.24 1.2-5.53 4.36-6.44 2.9-.83 5.54.26 6.58 2.88 1.68 4.24 2.67 8.76 3.66 12.17Z"></path>
        <path d="M303.15 92.19c.9-3.21 1.81-7.36 3.24-11.31 1.04-2.87 3.58-4.21 6.63-3.52 3.17.72 5.19 2.98 4.64 6.23-.72 4.26-1.85 8.51-3.3 12.58-1.11 3.13-4 4.09-7.09 3.2-2.98-.85-4.35-3.14-4.12-7.18Z"></path>
        <path d="M186.94 47.85c-9.93-.16-19.58-1.83-28.92-5.24-4.39-1.6-6.26-4.66-5.06-8.16 1.21-3.51 4.59-4.77 9.02-3.2 16.86 5.98 33.69 5.96 50.54-.05 4.28-1.53 7.47-.35 8.8 3.03 1.37 3.49-.42 6.73-4.73 8.31-9.57 3.52-19.47 5.21-29.66 5.31Z"></path>
    </g>
</svg>